<?xml version="1.0" encoding="UTF-8"?>
<svg width="92px" height="166px" viewBox="0 0 92 166" version="1.1" xmlns="http://www.w3.org/2000/svg" xmlns:xlink="http://www.w3.org/1999/xlink">
    <!-- Generator: Sketch 52.5 (67469) - http://www.bohemiancoding.com/sketch -->
    <title>Combined Shape</title>
    <desc>Created with Sketch.</desc>
    <g id="Page-1" stroke="none" stroke-width="1" fill="none" fill-rule="evenodd">
        <g id="A4" transform="translate(-35.000000, -17.000000)" fill="#181818">
            <path d="M94.2255185,96.5206217 L98,98.4078625 L94.0895971,100.363064 C93.8777555,106.029703 93.654856,110.520222 93.4208984,113.83462 C93.0303899,119.366825 92.6308131,124.662397 92.222168,129.721339 C91.5041193,135.13852 90.4388524,140.62794 89.0263672,146.189601 C86.9076394,154.532091 86.340486,156.088938 84.2246094,161.407862 C82.814025,164.953812 80.9058219,168.120479 78.5,170.907862 C76.3688154,173.963993 74.0354821,176.463993 71.5,178.407862 C67.6967769,181.323667 67.800202,181.424853 63.8681641,182.407862 C61.2468054,183.063202 58.4574174,183.063202 55.5,182.407862 C52.7324006,181.513234 50.726704,180.700734 49.4829102,179.970362 C48.2391163,179.239991 46.5825408,178.178793 44.5131836,176.786769 L39.7729492,171.766749 C38.385667,170.108227 37.4711162,168.579418 37.0292969,167.180323 C36.4639989,165.390213 34.8362229,156.092432 36.6422029,152.732923 C38.0952526,149.377559 41.7205928,147 45.9629425,147 C51.48579,147 55.9629425,151.029437 55.9629425,156 C55.9629425,160.422833 52.4181411,164.100527 47.7460225,164.857346 L52.5,170.907862 L61.5,178.407862 L68.5,170.907862 C72.0078125,166.496177 74.2519531,160.058189 75.2324219,151.593898 C76.703125,138.897461 76.8787676,136.29214 77.1552734,122.006836 C77.1585962,121.835172 77.1521067,121.505251 77.1552734,121.339844 C77.3998789,108.563643 77.1991424,114.327885 78.275612,97.0456685 L75,95.4078625 L78.4842301,93.6657474 C78.4894617,93.5802493 78.4947184,93.4942862 78.5,93.4078625 C79.8447266,71.4038597 82.9013672,54.9457092 84.2246094,49.2679749 C85.5478516,43.5902405 86.4202728,41.766868 87.3840332,38.8385265 C88.0187988,36.9098206 90.5671387,30.780426 92.222168,28.0814514 C93.8771973,25.3824768 96.4724121,22.2577209 98.5302734,20.6107483 C100.588135,18.9637756 100.930176,19.0023499 102.364746,18.2521057 C103.799316,17.5018616 105.491211,17.2749329 106.455566,17.1178284 C107.419922,16.9607239 108.144775,16.9607239 110.421875,17.1178284 C111.68876,17.2052348 113.514648,17.6161194 114.741211,18.2521057 C115.967773,18.888092 117.973985,20.3178899 118.73877,20.9352112 C120.288574,22.1861877 120.525146,22.3795471 121.958496,23.9032288 C123.391846,25.4269104 124.100342,26.9960022 124.808838,28.486969 C125.517334,29.9779358 126.063599,31.6745911 126.063599,32.7425842 C126.063599,33.0226962 126.038776,33.4143571 125.994343,33.8463693 C125.834705,38.3912797 122.3166,42.0237193 118,42.0237193 C113.581722,42.0237193 110,38.2181397 110,33.5237193 C110,31.2809721 110.817502,29.2410962 112.153165,27.7221396 L104.682129,20.6107483 C102.974465,23.2749769 101.842547,25.1490817 101.286377,26.2330627 C100.548874,27.6704618 99.8557129,29.2433167 99.1535645,30.9078625 C98.451416,32.5724083 97.3392175,36.1661633 96.8579102,38.8385265 C96.3766028,41.5108898 96.4489082,40.9988736 95.996582,45.8990734 C95.3616781,52.7771993 95.0048259,59.970111 94.9260254,67.4778088 L94.5,87.4078625 C94.4107736,90.6866155 94.3192798,93.7242019 94.2255185,96.5206217 Z" id="Combined-Shape"></path>
        </g>
    </g>
</svg>